<?xml version="1.0" encoding="UTF-8"?>
<svg xmlns="http://www.w3.org/2000/svg" xmlns:xlink="http://www.w3.org/1999/xlink" width="24px" height="24px" viewBox="0 0 24 24" version="1.1">
<g id="surface1">
<path style=" stroke:none;fill-rule:nonzero;fill:#ccd2e2;fill-opacity:1;" d="M 9.1875 2.34375 C 9.261719 2.371094 9.261719 2.371094 9.335938 2.398438 C 9.894531 2.613281 10.355469 2.914062 10.78125 3.328125 C 10.824219 3.367188 10.863281 3.40625 10.90625 3.449219 C 10.941406 3.484375 10.980469 3.523438 11.015625 3.5625 C 11.039062 3.585938 11.0625 3.613281 11.089844 3.636719 C 11.945312 4.546875 12.148438 5.753906 12.144531 6.957031 C 12.144531 7.03125 12.144531 7.105469 12.144531 7.179688 C 12.144531 7.371094 12.144531 7.566406 12.144531 7.757812 C 12.144531 7.957031 12.144531 8.15625 12.144531 8.351562 C 12.140625 8.742188 12.140625 9.128906 12.140625 9.515625 C 12.230469 9.515625 12.230469 9.515625 12.324219 9.511719 C 12.40625 9.511719 12.484375 9.511719 12.566406 9.511719 C 12.605469 9.511719 12.644531 9.511719 12.6875 9.507812 C 13.328125 9.503906 13.867188 9.75 14.335938 10.1875 C 14.507812 10.367188 14.765625 10.664062 14.765625 10.921875 C 14.890625 10.8125 15.011719 10.707031 15.140625 10.59375 C 15.125 10.535156 15.109375 10.476562 15.089844 10.417969 C 15.070312 10.34375 15.046875 10.265625 15.027344 10.1875 C 15.015625 10.152344 15.003906 10.113281 14.992188 10.074219 C 14.78125 9.316406 14.761719 8.441406 15 7.6875 C 15.011719 7.644531 15.011719 7.644531 15.027344 7.597656 C 15.378906 6.480469 16.144531 5.609375 17.171875 5.054688 C 18.175781 4.539062 19.371094 4.464844 20.445312 4.789062 C 21.019531 4.972656 21.539062 5.265625 21.984375 5.671875 C 22.027344 5.710938 22.070312 5.746094 22.113281 5.785156 C 22.882812 6.515625 23.394531 7.558594 23.4375 8.625 C 23.4375 8.667969 23.441406 8.710938 23.441406 8.753906 C 23.46875 9.945312 23.050781 11.011719 22.25 11.886719 C 21.535156 12.628906 20.515625 13.160156 19.46875 13.183594 C 18.917969 13.191406 18.40625 13.183594 17.878906 13.03125 C 17.824219 13.015625 17.773438 13 17.71875 12.984375 C 17.648438 12.960938 17.648438 12.960938 17.578125 12.9375 C 17.414062 12.9375 17.394531 12.957031 17.28125 13.066406 C 17.226562 13.121094 17.171875 13.179688 17.121094 13.234375 C 17.066406 13.292969 17.015625 13.351562 16.960938 13.40625 C 16.9375 13.433594 16.914062 13.457031 16.890625 13.484375 C 16.796875 13.578125 16.746094 13.59375 16.613281 13.601562 C 16.125 13.597656 16.125 13.597656 15.890625 13.546875 C 15.898438 13.578125 15.902344 13.609375 15.910156 13.640625 C 16.03125 14.214844 16.03125 14.214844 15.910156 14.425781 C 15.789062 14.597656 15.644531 14.746094 15.496094 14.898438 C 15.46875 14.925781 15.441406 14.953125 15.414062 14.980469 C 15.390625 15.007812 15.363281 15.03125 15.335938 15.058594 C 15.3125 15.082031 15.289062 15.105469 15.265625 15.128906 C 15.1875 15.1875 15.1875 15.1875 14.953125 15.234375 C 14.953125 15.527344 14.953125 15.820312 14.953125 16.125 C 15.238281 16.121094 15.238281 16.121094 15.523438 16.117188 C 15.558594 16.117188 15.59375 16.117188 15.628906 16.117188 C 15.667969 16.117188 15.703125 16.113281 15.742188 16.113281 C 15.859375 16.125 15.929688 16.15625 16.03125 16.21875 C 16.128906 16.34375 16.125 16.410156 16.121094 16.570312 C 16.066406 16.773438 16.023438 16.816406 15.84375 16.921875 C 15.691406 16.945312 15.539062 16.941406 15.382812 16.933594 C 15.34375 16.933594 15.300781 16.933594 15.257812 16.929688 C 15.15625 16.929688 15.054688 16.925781 14.953125 16.921875 C 14.953125 17.199219 14.953125 17.480469 14.953125 17.765625 C 15.050781 17.765625 15.152344 17.761719 15.253906 17.761719 C 15.347656 17.757812 15.445312 17.757812 15.542969 17.757812 C 15.609375 17.757812 15.675781 17.757812 15.742188 17.753906 C 15.835938 17.753906 15.933594 17.753906 16.027344 17.75 C 16.085938 17.75 16.144531 17.75 16.203125 17.75 C 16.371094 17.765625 16.460938 17.804688 16.59375 17.90625 C 16.667969 18.054688 16.679688 18.21875 16.640625 18.375 C 16.507812 18.507812 16.433594 18.558594 16.246094 18.582031 C 16.15625 18.582031 16.15625 18.582031 16.066406 18.582031 C 16.035156 18.582031 16 18.582031 15.96875 18.578125 C 15.867188 18.578125 15.765625 18.578125 15.664062 18.574219 C 15.597656 18.574219 15.527344 18.574219 15.457031 18.570312 C 15.289062 18.570312 15.121094 18.566406 14.953125 18.5625 C 14.953125 18.855469 14.953125 19.148438 14.953125 19.453125 C 15.054688 19.453125 15.15625 19.449219 15.261719 19.449219 C 15.59375 19.445312 15.929688 19.441406 16.261719 19.441406 C 16.464844 19.441406 16.667969 19.4375 16.871094 19.433594 C 17.066406 19.433594 17.261719 19.429688 17.460938 19.429688 C 17.535156 19.429688 17.609375 19.429688 17.683594 19.429688 C 17.789062 19.425781 17.890625 19.425781 17.996094 19.425781 C 18.054688 19.425781 18.117188 19.425781 18.175781 19.425781 C 18.328125 19.453125 18.328125 19.453125 18.441406 19.5625 C 18.53125 19.714844 18.542969 19.792969 18.515625 19.96875 C 18.441406 20.09375 18.441406 20.09375 18.328125 20.203125 C 18.175781 20.230469 18.175781 20.230469 17.988281 20.230469 C 17.953125 20.230469 17.921875 20.230469 17.886719 20.230469 C 17.773438 20.230469 17.664062 20.226562 17.550781 20.226562 C 17.472656 20.226562 17.394531 20.226562 17.320312 20.226562 C 17.113281 20.222656 16.910156 20.222656 16.707031 20.21875 C 16.5 20.21875 16.292969 20.214844 16.082031 20.214844 C 15.675781 20.210938 15.265625 20.207031 14.859375 20.203125 C 14.847656 20.257812 14.847656 20.257812 14.839844 20.3125 C 14.8125 20.429688 14.78125 20.519531 14.726562 20.625 C 14.710938 20.65625 14.699219 20.683594 14.683594 20.714844 C 14.613281 20.835938 14.523438 20.9375 14.4375 21.046875 C 14.484375 21.046875 14.484375 21.046875 14.535156 21.046875 C 15.3125 21.046875 16.089844 21.050781 16.867188 21.054688 C 17.242188 21.058594 17.617188 21.058594 17.992188 21.058594 C 18.320312 21.058594 18.648438 21.0625 18.976562 21.0625 C 19.152344 21.066406 19.324219 21.066406 19.496094 21.066406 C 19.691406 21.066406 19.882812 21.066406 20.078125 21.066406 C 20.136719 21.066406 20.195312 21.066406 20.253906 21.066406 C 20.304688 21.066406 20.359375 21.070312 20.414062 21.070312 C 20.457031 21.070312 20.503906 21.070312 20.550781 21.070312 C 20.707031 21.101562 20.761719 21.160156 20.859375 21.28125 C 20.914062 21.457031 20.921875 21.527344 20.84375 21.695312 C 20.765625 21.796875 20.765625 21.796875 20.71875 21.84375 C 20.621094 21.847656 20.527344 21.851562 20.429688 21.851562 C 20.382812 21.851562 20.382812 21.851562 20.335938 21.851562 C 20.230469 21.851562 20.128906 21.851562 20.023438 21.851562 C 19.949219 21.851562 19.871094 21.851562 19.796875 21.851562 C 19.589844 21.851562 19.382812 21.851562 19.175781 21.851562 C 18.953125 21.851562 18.730469 21.851562 18.507812 21.851562 C 17.96875 21.855469 17.425781 21.855469 16.886719 21.855469 C 16.632812 21.855469 16.378906 21.855469 16.125 21.855469 C 15.28125 21.855469 14.4375 21.855469 13.59375 21.855469 C 13.375 21.855469 13.15625 21.859375 12.933594 21.859375 C 12.882812 21.859375 12.828125 21.859375 12.769531 21.859375 C 11.886719 21.859375 11.003906 21.859375 10.125 21.859375 C 9.21875 21.863281 8.3125 21.863281 7.40625 21.863281 C 6.898438 21.863281 6.390625 21.863281 5.882812 21.863281 C 5.449219 21.867188 5.015625 21.867188 4.582031 21.867188 C 4.359375 21.867188 4.140625 21.867188 3.917969 21.867188 C 3.714844 21.867188 3.511719 21.867188 3.3125 21.867188 C 3.238281 21.867188 3.164062 21.867188 3.089844 21.867188 C 2.460938 21.871094 1.960938 21.761719 1.453125 21.375 C 1.414062 21.347656 1.375 21.316406 1.335938 21.285156 C 0.875 20.894531 0.632812 20.324219 0.5625 19.734375 C 0.558594 19.621094 0.554688 19.507812 0.554688 19.394531 C 0.554688 19.359375 0.554688 19.328125 0.554688 19.292969 C 0.554688 19.183594 0.554688 19.078125 0.554688 18.96875 C 0.554688 18.890625 0.554688 18.8125 0.554688 18.730469 C 0.554688 18.519531 0.554688 18.308594 0.554688 18.09375 C 0.554688 17.960938 0.554688 17.828125 0.550781 17.695312 C 0.550781 17.277344 0.550781 16.863281 0.550781 16.445312 C 0.550781 15.964844 0.550781 15.484375 0.550781 15.003906 C 0.546875 14.632812 0.546875 14.261719 0.546875 13.890625 C 0.546875 13.667969 0.546875 13.445312 0.546875 13.222656 C 0.546875 13.015625 0.546875 12.808594 0.546875 12.597656 C 0.546875 12.523438 0.546875 12.445312 0.546875 12.371094 C 0.539062 11.53125 0.652344 10.8125 1.25 10.183594 C 1.746094 9.699219 2.304688 9.507812 2.992188 9.511719 C 3.03125 9.511719 3.074219 9.511719 3.117188 9.511719 C 3.21875 9.515625 3.320312 9.515625 3.421875 9.515625 C 3.421875 9.472656 3.421875 9.433594 3.421875 9.390625 C 3.417969 8.992188 3.414062 8.59375 3.414062 8.199219 C 3.414062 7.992188 3.414062 7.789062 3.410156 7.585938 C 3.410156 7.386719 3.410156 7.191406 3.410156 6.992188 C 3.410156 6.917969 3.40625 6.84375 3.40625 6.769531 C 3.394531 5.429688 3.804688 4.28125 4.75 3.308594 C 5.898438 2.222656 7.691406 1.804688 9.1875 2.34375 Z M 6.277344 5.179688 C 5.96875 5.585938 5.804688 6.011719 5.808594 6.519531 C 5.808594 6.550781 5.808594 6.585938 5.808594 6.621094 C 5.808594 6.726562 5.808594 6.832031 5.808594 6.9375 C 5.808594 7.003906 5.808594 7.070312 5.808594 7.136719 C 5.808594 7.378906 5.808594 7.621094 5.808594 7.867188 C 5.808594 8.410156 5.8125 8.953125 5.8125 9.515625 C 7.113281 9.515625 8.410156 9.515625 9.75 9.515625 C 9.753906 8.992188 9.753906 8.472656 9.757812 7.933594 C 9.761719 7.769531 9.761719 7.605469 9.761719 7.4375 C 9.761719 7.289062 9.761719 7.289062 9.761719 7.140625 C 9.761719 7.074219 9.765625 7.007812 9.765625 6.941406 C 9.773438 6.226562 9.679688 5.636719 9.183594 5.097656 C 8.785156 4.722656 8.332031 4.515625 7.785156 4.496094 C 7.191406 4.515625 6.683594 4.753906 6.277344 5.179688 Z M 16.527344 6.523438 C 15.910156 7.25 15.570312 8.136719 15.609375 9.09375 C 15.644531 9.539062 15.753906 9.925781 15.9375 10.332031 C 16.011719 10.523438 16.023438 10.625 15.984375 10.828125 C 15.777344 11.125 15.488281 11.375 15.226562 11.625 C 15.128906 11.71875 15.027344 11.816406 14.929688 11.910156 C 14.875 11.964844 14.824219 12.015625 14.769531 12.066406 C 14.425781 12.398438 14.085938 12.734375 13.746094 13.066406 C 13.414062 13.394531 13.082031 13.71875 12.75 14.039062 C 12.484375 14.292969 12.21875 14.554688 11.957031 14.8125 C 11.816406 14.949219 11.675781 15.085938 11.535156 15.21875 C 10.734375 15.976562 10.734375 15.976562 10.445312 17.019531 C 10.445312 17.144531 10.449219 17.265625 10.453125 17.390625 C 10.453125 17.464844 10.453125 17.535156 10.453125 17.609375 C 10.453125 17.660156 10.453125 17.710938 10.453125 17.765625 C 10.863281 17.855469 11.269531 17.894531 11.640625 17.671875 C 11.800781 17.546875 11.945312 17.410156 12.089844 17.265625 C 12.113281 17.246094 12.140625 17.222656 12.164062 17.199219 C 12.371094 16.996094 12.546875 16.8125 12.582031 16.511719 C 12.570312 16.347656 12.546875 16.191406 12.515625 16.03125 C 12.449219 15.570312 12.449219 15.570312 12.5625 15.375 C 12.824219 15.242188 13.21875 15.332031 13.5 15.375 C 13.492188 15.3125 13.484375 15.253906 13.476562 15.191406 C 13.410156 14.59375 13.410156 14.59375 13.546875 14.390625 C 13.839844 14.320312 14.089844 14.363281 14.382812 14.414062 C 14.664062 14.460938 14.664062 14.460938 14.925781 14.378906 C 15.039062 14.277344 15.117188 14.199219 15.1875 14.0625 C 15.191406 13.820312 15.140625 13.59375 15.09375 13.359375 C 15.085938 13.269531 15.082031 13.179688 15.082031 13.089844 C 15.082031 13.035156 15.082031 13.035156 15.082031 12.980469 C 15.09375 12.890625 15.09375 12.890625 15.1875 12.75 C 15.417969 12.695312 15.613281 12.707031 15.847656 12.746094 C 15.953125 12.765625 16.0625 12.78125 16.171875 12.796875 C 16.21875 12.804688 16.261719 12.8125 16.308594 12.820312 C 16.542969 12.78125 16.660156 12.617188 16.816406 12.449219 C 16.878906 12.382812 16.941406 12.316406 17.003906 12.253906 C 17.03125 12.222656 17.058594 12.195312 17.085938 12.164062 C 17.167969 12.082031 17.21875 12.046875 17.335938 12.046875 C 17.535156 12.066406 17.703125 12.101562 17.890625 12.179688 C 18.707031 12.53125 19.628906 12.5 20.449219 12.175781 C 21.355469 11.789062 22.011719 11.105469 22.402344 10.203125 C 22.765625 9.285156 22.710938 8.328125 22.339844 7.417969 C 21.917969 6.550781 21.191406 5.921875 20.296875 5.578125 C 18.941406 5.144531 17.511719 5.480469 16.527344 6.523438 Z M 1.714844 10.828125 C 1.457031 11.160156 1.355469 11.492188 1.351562 11.910156 C 1.351562 11.941406 1.351562 11.976562 1.351562 12.007812 C 1.351562 12.121094 1.351562 12.234375 1.351562 12.34375 C 1.351562 12.425781 1.351562 12.503906 1.351562 12.585938 C 1.347656 12.847656 1.347656 13.109375 1.347656 13.371094 C 1.347656 13.464844 1.347656 13.554688 1.347656 13.644531 C 1.347656 14.070312 1.347656 14.496094 1.34375 14.921875 C 1.34375 15.414062 1.34375 15.902344 1.34375 16.394531 C 1.339844 16.773438 1.339844 17.152344 1.339844 17.535156 C 1.339844 17.761719 1.339844 17.988281 1.339844 18.214844 C 1.335938 18.425781 1.335938 18.640625 1.335938 18.855469 C 1.335938 18.929688 1.335938 19.007812 1.335938 19.085938 C 1.332031 19.636719 1.378906 20.140625 1.738281 20.585938 C 2.144531 20.980469 2.59375 21.109375 3.144531 21.105469 C 3.207031 21.105469 3.207031 21.105469 3.269531 21.105469 C 3.40625 21.109375 3.542969 21.109375 3.683594 21.105469 C 3.78125 21.109375 3.878906 21.109375 3.980469 21.109375 C 4.246094 21.109375 4.515625 21.109375 4.78125 21.109375 C 4.949219 21.109375 5.117188 21.109375 5.285156 21.109375 C 5.871094 21.109375 6.457031 21.109375 7.042969 21.109375 C 7.585938 21.109375 8.132812 21.113281 8.675781 21.113281 C 9.144531 21.113281 9.613281 21.117188 10.082031 21.113281 C 10.363281 21.113281 10.640625 21.117188 10.921875 21.117188 C 11.183594 21.117188 11.445312 21.117188 11.710938 21.117188 C 11.804688 21.117188 11.902344 21.117188 12 21.117188 C 12.691406 21.121094 13.257812 21.101562 13.777344 20.589844 C 14.238281 20.09375 14.222656 19.496094 14.21875 18.859375 C 14.214844 18.777344 14.214844 18.699219 14.214844 18.621094 C 14.214844 18.414062 14.214844 18.207031 14.210938 18 C 14.210938 17.789062 14.210938 17.578125 14.210938 17.367188 C 14.207031 16.953125 14.207031 16.539062 14.203125 16.125 C 14.175781 16.128906 14.144531 16.132812 14.117188 16.136719 C 14.078125 16.140625 14.039062 16.144531 14 16.148438 C 13.945312 16.15625 13.945312 16.15625 13.886719 16.164062 C 13.761719 16.171875 13.644531 16.167969 13.519531 16.152344 C 13.480469 16.148438 13.441406 16.140625 13.398438 16.136719 C 13.371094 16.132812 13.34375 16.128906 13.3125 16.125 C 13.316406 16.171875 13.324219 16.21875 13.328125 16.269531 C 13.332031 16.332031 13.339844 16.394531 13.34375 16.460938 C 13.347656 16.488281 13.351562 16.519531 13.355469 16.554688 C 13.375 16.816406 13.324219 16.984375 13.152344 17.1875 C 13.074219 17.269531 12.992188 17.351562 12.910156 17.433594 C 12.882812 17.460938 12.851562 17.492188 12.820312 17.523438 C 12.757812 17.585938 12.695312 17.648438 12.632812 17.707031 C 12.535156 17.804688 12.441406 17.898438 12.34375 17.996094 C 12.28125 18.054688 12.222656 18.117188 12.160156 18.175781 C 12.132812 18.207031 12.101562 18.234375 12.074219 18.261719 C 11.820312 18.515625 11.820312 18.515625 11.664062 18.519531 C 11.601562 18.515625 11.601562 18.515625 11.539062 18.515625 C 10.933594 18.484375 10.933594 18.484375 10.425781 18.753906 C 10.394531 18.789062 10.359375 18.828125 10.328125 18.867188 C 9.796875 19.4375 8.832031 19.714844 8.078125 19.75 C 6.882812 19.78125 5.828125 19.476562 4.933594 18.648438 C 4.132812 17.867188 3.71875 16.8125 3.691406 15.703125 C 3.703125 14.558594 4.152344 13.546875 4.941406 12.71875 C 5.761719 11.929688 6.851562 11.597656 7.96875 11.617188 C 9.066406 11.648438 10.078125 12.140625 10.828125 12.9375 C 11.140625 13.308594 11.378906 13.714844 11.578125 14.15625 C 12.015625 13.792969 12.414062 13.386719 12.816406 12.988281 C 12.949219 12.855469 13.082031 12.726562 13.214844 12.59375 C 13.347656 12.46875 13.476562 12.339844 13.605469 12.210938 C 13.65625 12.164062 13.703125 12.117188 13.753906 12.066406 C 13.824219 12 13.890625 11.933594 13.960938 11.863281 C 14 11.824219 14.039062 11.789062 14.078125 11.746094 C 14.171875 11.625 14.171875 11.625 14.148438 11.453125 C 14.050781 11.054688 13.792969 10.726562 13.453125 10.5 C 13.074219 10.308594 12.71875 10.257812 12.296875 10.257812 C 12.257812 10.257812 12.21875 10.257812 12.175781 10.257812 C 12.042969 10.257812 11.910156 10.257812 11.773438 10.257812 C 11.679688 10.257812 11.582031 10.257812 11.484375 10.257812 C 11.226562 10.257812 10.964844 10.257812 10.703125 10.257812 C 10.539062 10.257812 10.375 10.257812 10.210938 10.257812 C 9.640625 10.257812 9.070312 10.257812 8.5 10.257812 C 7.972656 10.257812 7.441406 10.257812 6.910156 10.253906 C 6.453125 10.253906 5.996094 10.253906 5.539062 10.253906 C 5.269531 10.253906 4.996094 10.253906 4.722656 10.253906 C 4.46875 10.253906 4.210938 10.253906 3.953125 10.253906 C 3.859375 10.253906 3.765625 10.253906 3.671875 10.253906 C 2.59375 10.25 2.59375 10.25 1.714844 10.828125 Z M 6.941406 13.628906 C 6.722656 13.90625 6.617188 14.175781 6.65625 14.53125 C 6.726562 14.847656 6.839844 15.101562 7.117188 15.292969 C 7.273438 15.390625 7.273438 15.390625 7.453125 15.421875 C 7.453125 15.457031 7.453125 15.492188 7.453125 15.527344 C 7.445312 15.863281 7.441406 16.195312 7.441406 16.53125 C 7.441406 16.703125 7.4375 16.875 7.433594 17.046875 C 7.433594 17.210938 7.429688 17.375 7.429688 17.542969 C 7.429688 17.636719 7.429688 17.730469 7.425781 17.824219 C 7.425781 17.882812 7.425781 17.9375 7.425781 17.996094 C 7.425781 18.046875 7.425781 18.097656 7.425781 18.148438 C 7.441406 18.289062 7.441406 18.289062 7.5625 18.394531 C 7.683594 18.480469 7.683594 18.480469 7.835938 18.46875 C 7.992188 18.414062 8.027344 18.378906 8.109375 18.234375 C 8.128906 18.101562 8.128906 18.101562 8.125 17.953125 C 8.125 17.898438 8.125 17.84375 8.125 17.785156 C 8.125 17.722656 8.125 17.664062 8.125 17.601562 C 8.121094 17.539062 8.121094 17.476562 8.121094 17.414062 C 8.121094 17.246094 8.121094 17.082031 8.117188 16.917969 C 8.117188 16.75 8.117188 16.582031 8.117188 16.414062 C 8.113281 16.082031 8.113281 15.753906 8.109375 15.421875 C 8.152344 15.410156 8.195312 15.394531 8.242188 15.382812 C 8.511719 15.285156 8.667969 15.0625 8.8125 14.820312 C 8.949219 14.523438 8.921875 14.242188 8.816406 13.9375 C 8.667969 13.613281 8.4375 13.441406 8.109375 13.3125 C 7.683594 13.171875 7.242188 13.304688 6.941406 13.628906 Z M 6.941406 13.628906 "/>
<path style=" stroke:none;fill-rule:nonzero;fill:#52cafe;fill-opacity:1;" d="M 10.3125 12.421875 C 10.824219 12.835938 11.386719 13.414062 11.578125 14.0625 C 11.558594 14.246094 11.515625 14.332031 11.378906 14.453125 C 11.34375 14.484375 11.3125 14.511719 11.28125 14.542969 C 11.226562 14.589844 11.226562 14.589844 11.171875 14.636719 C 10.234375 15.40625 10.234375 15.40625 9.726562 16.457031 C 9.71875 16.648438 9.722656 16.832031 9.742188 17.019531 C 9.753906 17.222656 9.734375 17.421875 9.714844 17.625 C 9.660156 18.019531 9.660156 18.019531 9.769531 18.386719 C 9.949219 18.507812 10.113281 18.5 10.324219 18.503906 C 10.363281 18.503906 10.402344 18.507812 10.445312 18.507812 C 10.539062 18.511719 10.636719 18.511719 10.734375 18.515625 C 10.222656 19.203125 9.296875 19.636719 8.460938 19.765625 C 7.304688 19.90625 6.164062 19.683594 5.234375 18.953125 C 4.378906 18.25 3.769531 17.261719 3.664062 16.140625 C 3.59375 14.917969 3.914062 13.824219 4.734375 12.890625 C 6.148438 11.316406 8.65625 11.128906 10.3125 12.421875 Z M 6.941406 13.628906 C 6.722656 13.90625 6.617188 14.175781 6.65625 14.53125 C 6.726562 14.847656 6.839844 15.101562 7.117188 15.292969 C 7.273438 15.390625 7.273438 15.390625 7.453125 15.421875 C 7.453125 15.457031 7.453125 15.492188 7.453125 15.527344 C 7.445312 15.863281 7.441406 16.195312 7.441406 16.53125 C 7.441406 16.703125 7.4375 16.875 7.433594 17.046875 C 7.433594 17.210938 7.429688 17.375 7.429688 17.542969 C 7.429688 17.636719 7.429688 17.730469 7.425781 17.824219 C 7.425781 17.882812 7.425781 17.9375 7.425781 17.996094 C 7.425781 18.046875 7.425781 18.097656 7.425781 18.148438 C 7.441406 18.289062 7.441406 18.289062 7.5625 18.394531 C 7.683594 18.480469 7.683594 18.480469 7.835938 18.46875 C 7.992188 18.414062 8.027344 18.378906 8.109375 18.234375 C 8.128906 18.101562 8.128906 18.101562 8.125 17.953125 C 8.125 17.898438 8.125 17.84375 8.125 17.785156 C 8.125 17.722656 8.125 17.664062 8.125 17.601562 C 8.121094 17.539062 8.121094 17.476562 8.121094 17.414062 C 8.121094 17.246094 8.121094 17.082031 8.117188 16.917969 C 8.117188 16.75 8.117188 16.582031 8.117188 16.414062 C 8.113281 16.082031 8.113281 15.753906 8.109375 15.421875 C 8.152344 15.410156 8.195312 15.394531 8.242188 15.382812 C 8.511719 15.285156 8.667969 15.0625 8.8125 14.820312 C 8.949219 14.523438 8.921875 14.242188 8.816406 13.9375 C 8.667969 13.613281 8.4375 13.441406 8.109375 13.3125 C 7.683594 13.171875 7.242188 13.304688 6.941406 13.628906 Z M 6.941406 13.628906 "/>
<path style=" stroke:none;fill-rule:nonzero;fill:#52cafe;fill-opacity:1;" d="M 21.046875 6.46875 C 21.371094 6.6875 21.574219 6.96875 21.71875 7.328125 C 21.804688 7.800781 21.757812 8.226562 21.492188 8.640625 C 21.265625 8.925781 20.96875 9.074219 20.625 9.1875 C 20.109375 9.226562 19.707031 9.175781 19.296875 8.851562 C 19.050781 8.621094 18.859375 8.273438 18.835938 7.929688 C 18.828125 7.460938 18.882812 7.050781 19.21875 6.703125 C 19.769531 6.246094 20.398438 6.140625 21.046875 6.46875 Z M 21.046875 6.46875 "/>
<path style=" stroke:none;fill-rule:nonzero;fill:#ccd2e2;fill-opacity:1;" d="M 18.207031 17.757812 C 18.257812 17.757812 18.308594 17.757812 18.363281 17.757812 C 18.417969 17.757812 18.476562 17.757812 18.53125 17.757812 C 18.589844 17.753906 18.648438 17.753906 18.707031 17.753906 C 18.828125 17.753906 18.949219 17.753906 19.074219 17.753906 C 19.257812 17.753906 19.445312 17.753906 19.632812 17.75 C 19.75 17.75 19.867188 17.75 19.984375 17.75 C 20.042969 17.75 20.097656 17.75 20.15625 17.75 C 20.234375 17.75 20.234375 17.75 20.3125 17.75 C 20.359375 17.75 20.402344 17.75 20.453125 17.75 C 20.601562 17.769531 20.691406 17.820312 20.8125 17.90625 C 20.902344 18.027344 20.90625 18.082031 20.898438 18.234375 C 20.851562 18.398438 20.804688 18.457031 20.671875 18.5625 C 20.542969 18.585938 20.542969 18.585938 20.394531 18.585938 C 20.339844 18.589844 20.285156 18.589844 20.226562 18.589844 C 20.167969 18.589844 20.109375 18.589844 20.046875 18.589844 C 19.953125 18.589844 19.953125 18.589844 19.859375 18.589844 C 19.730469 18.589844 19.597656 18.589844 19.46875 18.589844 C 19.300781 18.589844 19.136719 18.589844 18.96875 18.589844 C 18.808594 18.59375 18.648438 18.59375 18.492188 18.59375 C 18.429688 18.59375 18.371094 18.59375 18.308594 18.59375 C 17.851562 18.589844 17.851562 18.589844 17.703125 18.453125 C 17.601562 18.289062 17.59375 18.191406 17.625 18 C 17.789062 17.785156 17.945312 17.761719 18.207031 17.757812 Z M 18.207031 17.757812 "/>
<path style=" stroke:none;fill-rule:nonzero;fill:#ccd2e2;fill-opacity:1;" d="M 17.957031 16.113281 C 18.0625 16.113281 18.164062 16.113281 18.265625 16.109375 C 18.328125 16.109375 18.394531 16.109375 18.460938 16.109375 C 18.519531 16.109375 18.578125 16.109375 18.636719 16.109375 C 18.808594 16.125 18.894531 16.164062 19.03125 16.265625 C 19.105469 16.410156 19.09375 16.527344 19.078125 16.6875 C 18.992188 16.796875 18.921875 16.859375 18.796875 16.921875 C 18.589844 16.933594 18.386719 16.929688 18.179688 16.929688 C 18.078125 16.929688 17.972656 16.929688 17.871094 16.933594 C 17.808594 16.933594 17.742188 16.933594 17.675781 16.933594 C 17.617188 16.933594 17.558594 16.933594 17.496094 16.933594 C 17.351562 16.921875 17.273438 16.90625 17.15625 16.828125 C 17.058594 16.703125 17.0625 16.636719 17.070312 16.472656 C 17.109375 16.316406 17.125 16.261719 17.25 16.171875 C 17.453125 16.070312 17.730469 16.113281 17.957031 16.113281 Z M 17.957031 16.113281 "/>
<path style=" stroke:none;fill-rule:nonzero;fill:#ccd2e2;fill-opacity:1;" d="M 19.554688 14.453125 C 19.585938 14.453125 19.617188 14.453125 19.648438 14.453125 C 19.714844 14.453125 19.78125 14.457031 19.847656 14.457031 C 19.949219 14.457031 20.050781 14.457031 20.148438 14.457031 C 20.214844 14.457031 20.28125 14.457031 20.34375 14.457031 C 20.402344 14.457031 20.460938 14.457031 20.519531 14.460938 C 20.699219 14.488281 20.753906 14.53125 20.859375 14.671875 C 20.914062 14.839844 20.921875 14.917969 20.851562 15.082031 C 20.726562 15.234375 20.597656 15.273438 20.402344 15.292969 C 20.332031 15.292969 20.332031 15.292969 20.261719 15.292969 C 20.183594 15.292969 20.183594 15.292969 20.105469 15.292969 C 20.027344 15.292969 20.027344 15.292969 19.945312 15.292969 C 19.890625 15.292969 19.839844 15.292969 19.785156 15.292969 C 19.734375 15.292969 19.683594 15.292969 19.628906 15.292969 C 19.585938 15.292969 19.539062 15.292969 19.488281 15.292969 C 19.308594 15.277344 19.171875 15.234375 19.039062 15.105469 C 18.964844 14.960938 18.957031 14.878906 18.984375 14.71875 C 19.160156 14.496094 19.273438 14.453125 19.554688 14.453125 Z M 19.554688 14.453125 "/>
<path style="stroke:none;fill-rule:nonzero;fill:#ccd2e2;fill-opacity:1;" d="M 16.695312 14.453125 C 16.726562 14.453125 16.757812 14.453125 16.789062 14.453125 C 16.855469 14.453125 16.921875 14.457031 16.988281 14.457031 C 17.089844 14.457031 17.191406 14.457031 17.289062 14.457031 C 17.355469 14.457031 17.421875 14.457031 17.484375 14.457031 C 17.542969 14.457031 17.601562 14.457031 17.660156 14.460938 C 17.839844 14.488281 17.894531 14.53125 18 14.671875 C 18.054688 14.839844 18.0625 14.917969 17.992188 15.082031 C 17.867188 15.234375 17.738281 15.273438 17.542969 15.292969 C 17.472656 15.292969 17.472656 15.292969 17.402344 15.292969 C 17.324219 15.292969 17.324219 15.292969 17.246094 15.292969 C 17.167969 15.292969 17.167969 15.292969 17.085938 15.292969 C 17.03125 15.292969 16.980469 15.292969 16.925781 15.292969 C 16.875 15.292969 16.824219 15.292969 16.769531 15.292969 C 16.726562 15.292969 16.679688 15.292969 16.628906 15.292969 C 16.449219 15.277344 16.3125 15.234375 16.179688 15.105469 C 16.105469 14.960938 16.097656 14.878906 16.125 14.71875 C 16.300781 14.496094 16.414062 14.453125 16.695312 14.453125 Z M 16.695312 14.453125 "/>
<path style="stroke:none;fill-rule:nonzero;fill:#ccd2e2;fill-opacity:1;" d="M 20.171875 19.441406 C 20.242188 19.441406 20.242188 19.441406 20.308594 19.4375 C 20.351562 19.4375 20.398438 19.4375 20.441406 19.4375 C 20.5 19.4375 20.5 19.4375 20.5625 19.4375 C 20.699219 19.457031 20.761719 19.5 20.859375 19.59375 C 20.910156 19.78125 20.925781 19.878906 20.84375 20.054688 C 20.765625 20.15625 20.765625 20.15625 20.671875 20.203125 C 20.511719 20.21875 20.347656 20.214844 20.1875 20.21875 C 20.140625 20.21875 20.09375 20.21875 20.050781 20.222656 C 19.71875 20.226562 19.71875 20.226562 19.566406 20.117188 C 19.488281 19.996094 19.457031 19.925781 19.453125 19.78125 C 19.609375 19.394531 19.796875 19.445312 20.171875 19.441406 Z M 20.171875 19.441406 "/>
<path style="stroke:none;fill-rule:nonzero;fill:#ccd2e2;fill-opacity:1;" d="M 20.625 16.125 C 20.800781 16.222656 20.847656 16.28125 20.910156 16.472656 C 20.90625 16.675781 20.859375 16.738281 20.71875 16.875 C 20.574219 16.949219 20.457031 16.933594 20.296875 16.921875 C 20.148438 16.835938 20.078125 16.78125 20.019531 16.621094 C 20.015625 16.433594 20.0625 16.316406 20.1875 16.179688 C 20.34375 16.101562 20.453125 16.105469 20.625 16.125 Z M 20.625 16.125 "/>
</g>
</svg>
